<svg width="718" height="425" viewBox="0 0 718 425" fill="none" xmlns="http://www.w3.org/2000/svg">
<path d="M246.796 259.823C247.534 258.166 248.761 256.861 249.782 255.411C249.634 255.548 249.479 255.676 249.32 255.795C248.565 256.151 247.866 256.641 247.251 257.245C246.874 257.827 246.62 258.495 246.507 259.201L244.748 266.797C245.093 266.314 245.438 265.838 245.789 265.362C245.768 263.457 246.111 261.569 246.796 259.823Z" fill="#F2F2F2"/>
<path d="M412.782 264.956C412.665 265.815 412.432 266.651 412.092 267.434C412.109 270.649 411.724 273.851 410.948 276.947C410.623 278.254 410.381 279.585 410.224 280.929C408.596 293.312 407.024 306.248 409.803 318.248C410.003 317.519 410.366 316.859 410.858 316.329C412.692 313.821 413.416 310.545 413.961 307.368C416.822 290.643 416.029 273.564 415.34 256.478C414.914 255.955 414.404 255.526 413.837 255.212C413.869 255.959 413.853 256.708 413.788 257.452C413.568 259.971 413.232 262.475 412.782 264.956Z" fill="#F2F2F2"/>
<path d="M316.099 259.838C316.08 258.863 315.897 257.9 315.561 256.999C315.204 256.248 314.754 255.555 314.223 254.943L312.734 253.056C311.975 273.096 310.362 293.19 313.713 312.808C314.258 315.984 314.982 319.26 316.816 321.769C317.308 322.299 317.671 322.959 317.871 323.687C320.629 311.711 319.077 298.752 317.45 286.369C317.293 285.024 317.051 283.694 316.726 282.387C315.503 277.351 315.224 272.089 315.906 266.927C316.179 264.577 316.244 262.203 316.099 259.838Z" fill="#F2F2F2"/>
<path d="M324.635 217.548C326.628 221.193 327.869 225.528 328.986 229.655L329.461 231.451C329.234 225.382 329.124 219.321 329.082 213.252C328.007 214.318 326.924 215.362 325.835 216.405L324.635 217.548Z" fill="#F2F2F2"/>
<path d="M340.666 422.062C340.967 417.812 340.672 413.536 339.79 409.387C339.184 406.763 338.246 404.193 338.163 401.477C338.18 399.668 338.379 397.866 338.756 396.106C341.59 380.071 342.81 363.2 338.522 347.571C337.37 343.382 335.846 339.331 334.674 335.15C334.14 336.718 333.49 338.235 332.73 339.684C332.567 339.01 332.272 338.385 331.865 337.854C331.459 337.323 330.951 336.9 330.378 336.615C330.411 337.362 330.395 338.111 330.33 338.855C330.125 341.363 329.805 343.857 329.372 346.328C329.249 347.293 328.961 348.223 328.524 349.067C327.952 349.947 327.188 350.649 326.303 351.108C326.703 352.113 327.103 353.126 327.496 354.131L324.621 355.113C326.51 359.716 324.938 364.964 323.932 369.859C320.325 386.884 323.573 405.067 321.863 422.276L340.666 422.062Z" fill="#F2F2F2"/>
<path d="M330.227 178.496C330.965 176.839 332.192 175.535 333.212 174.085C333.064 174.221 332.91 174.349 332.75 174.468C331.995 174.825 331.297 175.315 330.682 175.918C330.305 176.5 330.051 177.169 329.937 177.875L328.179 185.47C328.524 184.987 328.868 184.511 329.22 184.036C329.199 182.131 329.542 180.242 330.227 178.496Z" fill="#F2F2F2"/>
<path d="M399.529 178.512C399.511 177.536 399.328 176.574 398.992 175.673C398.634 174.921 398.184 174.229 397.654 173.617L396.165 171.729C395.42 191.463 393.848 211.257 397.006 230.591C397.564 228.504 398.13 226.418 398.688 224.323C399.54 220.881 400.649 217.524 402.005 214.288C401.681 211.219 401.281 208.096 400.881 205.081C400.724 203.736 400.482 202.406 400.157 201.099C398.934 196.063 398.654 190.801 399.336 185.639C399.612 183.276 399.677 180.889 399.529 178.512Z" fill="#F2F2F2"/>
<path d="M369.46 329.334L367.102 421.747L373.307 421.67C372.215 410.421 371.718 399.111 371.818 387.797C371.818 384.506 371.921 381.183 371.308 377.961C370.873 375.713 370.115 373.557 369.701 371.309C369.295 368.61 369.141 365.872 369.239 363.138L369.46 329.334Z" fill="#F2F2F2"/>
<path d="M316.133 329.38C316.23 329.127 316.326 328.874 316.416 328.613C316.74 327.677 317.03 326.733 317.298 325.782C317.278 325.816 317.259 325.852 317.243 325.889C316.699 326.887 316.106 327.846 315.492 328.782C315.713 328.981 315.926 329.173 316.133 329.38Z" fill="#F2F2F2"/>
<path d="M128.552 226.08C128.533 225.105 128.351 224.142 128.014 223.241C127.657 222.489 127.207 221.797 126.677 221.185L125.187 219.298C124.429 239.338 122.815 259.431 126.166 279.05C126.711 282.226 127.435 285.502 129.269 288.011C129.761 288.54 130.124 289.2 130.324 289.929C133.082 277.952 131.531 264.994 129.904 252.611C129.758 251.267 129.528 249.937 129.214 248.629C127.991 243.593 127.712 238.33 128.394 233.169C128.655 230.818 128.708 228.443 128.552 226.08Z" fill="#F2F2F2"/>
<path d="M128.587 295.622C128.683 295.369 128.78 295.115 128.869 294.855C129.193 293.919 129.483 292.975 129.752 292.024C129.731 292.058 129.712 292.094 129.697 292.131C129.152 293.128 128.559 294.087 127.945 295.023C128.166 295.223 128.38 295.415 128.587 295.622Z" fill="#F2F2F2"/>
<path d="M98.4826 376.902C98.0781 392.937 97.669 408.97 97.2553 425L100.213 424.962C99.772 422.921 99.117 420.941 98.7377 418.878C98.3319 416.179 98.1771 413.441 98.2758 410.707L98.4826 376.902Z" fill="#F2F2F2"/>
<path d="M142.784 423.243C141.898 422.78 141.133 422.072 140.563 421.187C140.119 420.324 139.831 419.373 139.715 418.386C139.282 415.915 138.962 413.421 138.757 410.914C138.692 410.169 138.676 409.42 138.709 408.673C138.136 408.958 137.629 409.382 137.222 409.913C136.815 410.443 136.52 411.068 136.357 411.742C134.349 407.785 133.034 403.44 132.482 398.937C132.276 399.704 132.062 400.548 131.793 401.346C130.359 406.095 128.276 410.691 127.863 415.686C127.665 418.692 127.897 421.714 128.552 424.639L142.246 424.471C142.494 424.056 142.625 423.65 142.784 423.243Z" fill="#F2F2F2"/>
<path d="M151.789 397.909C152.058 398.86 152.347 399.804 152.671 400.74C152.761 400.993 152.857 401.246 152.954 401.507C153.161 401.3 153.374 401.108 153.595 400.917C152.981 399.981 152.388 399.022 151.844 398.024C151.828 397.984 151.81 397.946 151.789 397.909Z" fill="#F2F2F2"/>
<path d="M250.575 413.867C249.608 409.297 248.947 404.652 248.596 399.973C247.502 388.72 246.408 377.467 245.314 366.215C245.279 365.923 245.252 365.624 245.224 365.332C245.183 365.478 245.148 365.624 245.107 365.77C244.273 368.493 242.618 370.787 240.97 373.028C239.322 375.268 237.26 377.585 234.84 376.925C233.848 376.564 232.948 375.946 232.213 375.122L226.697 369.821C225.608 368.777 224.525 367.734 223.449 366.667C223.401 374.071 223.249 381.467 222.905 388.863C222.794 391.203 222.622 393.643 221.629 395.684C223.664 402.719 224.792 410.04 224.98 417.427C225.028 419.43 224.98 421.432 224.925 423.435L241.087 423.235H241.184L253.34 423.09C252.326 420.067 251.306 417.013 250.575 413.867Z" fill="#F2F2F2"/>
<path d="M223.27 337.482C223.615 337.958 223.96 338.433 224.311 338.917L222.553 331.321C222.44 330.615 222.185 329.947 221.808 329.365C221.193 328.761 220.495 328.271 219.74 327.915C219.58 327.795 219.426 327.667 219.278 327.531C220.298 328.981 221.526 330.285 222.263 331.943C222.948 333.689 223.291 335.577 223.27 337.482Z" fill="#F2F2F2"/>
<path d="M243.259 303.801C243.693 309.133 243.948 314.48 244.19 319.828C244.431 325.176 244.679 330.385 244.921 335.664C245.484 331.58 246.337 327.552 247.472 323.618C246.479 321.577 246.307 319.137 246.196 316.797C245.852 309.401 245.7 302.005 245.652 294.601C244.597 295.653 243.528 296.681 242.452 297.67C242.853 299.69 243.122 301.738 243.259 303.801Z" fill="#F2F2F2"/>
<path d="M151.658 358.45C150.03 370.833 148.458 383.769 151.237 395.768C151.437 395.04 151.8 394.38 152.292 393.85C154.126 391.342 154.85 388.066 155.395 384.889C158.746 365.271 157.132 345.177 156.374 325.137L154.905 327.025C154.358 327.646 153.893 328.351 153.526 329.119C153.178 330.03 152.989 331.007 152.968 331.996C152.832 334.349 152.904 336.71 153.181 339.047C153.862 344.184 153.589 349.422 152.382 354.438C152.055 355.755 151.813 357.095 151.658 358.45Z" fill="#F2F2F2"/>
<path d="M400.991 421.333L406.397 421.271C403.515 402.796 407.672 382.963 403.756 364.496C403.142 361.619 402.377 358.604 402.184 355.681C400.805 359.755 399.226 363.775 398.867 368.094C398.24 375.56 401.398 382.71 402.57 390.099C404.184 400.28 401.998 410.66 401.026 420.941C401.012 421.079 401.005 421.187 400.991 421.333Z" fill="#F2F2F2"/>
<path d="M586.869 412.072C580.608 391.311 586.869 368.171 582.339 346.857C581.298 341.963 579.726 336.676 581.65 332.111L578.774 331.129C579.167 330.124 579.567 329.111 579.967 328.106C579.408 327.79 578.889 327.392 578.423 326.925L576.313 348.568C575.962 353.248 575.3 357.892 574.334 362.463C573.141 367.565 571.203 372.437 569.818 377.462C566.115 390.935 566.522 405.328 568.514 419.315L589.2 419.069C588.441 416.729 587.579 414.42 586.869 412.072Z" fill="#F2F2F2"/>
<path d="M577.195 206.853L577.25 206.638L577.499 205.741C576.907 205.196 576.253 204.742 575.554 204.39C575.395 204.271 575.24 204.143 575.092 204.007C575.775 204.973 576.54 205.871 577.195 206.853Z" fill="#F2F2F2"/>
<path d="M507.576 274.385C507.844 275.336 508.134 276.28 508.458 277.216C508.548 277.469 508.644 277.722 508.741 277.983C508.948 277.776 509.161 277.584 509.382 277.392C508.768 276.456 508.175 275.497 507.631 274.5C507.615 274.46 507.597 274.421 507.576 274.385Z" fill="#F2F2F2"/>
<path d="M592.544 289.752C594.661 277.385 594.798 264.833 594.419 252.227C593.916 252.738 593.314 253.112 592.66 253.321C592.006 253.53 591.317 253.568 590.648 253.432L590.53 253.393C590.362 255.403 590.027 257.391 589.531 259.332C589.205 260.638 588.964 261.969 588.807 263.314C587.179 275.697 585.607 288.632 588.386 300.632C588.586 299.903 588.949 299.243 589.441 298.714C591.275 296.205 591.999 292.929 592.544 289.752Z" fill="#F2F2F2"/>
<path d="M285.96 422.721C285.96 418.701 285.983 414.678 286.029 410.653C285.923 414.673 285.822 418.696 285.726 422.721H285.96Z" fill="#F2F2F2"/>
<path d="M715.642 89.8876C715.182 86.9977 714.637 84.1564 714.007 81.3637C707.319 51.2729 691.66 27.2586 662.984 14.2617C660.524 13.1466 657.969 12.1237 655.316 11.1927C649.281 9.05958 643.115 7.41849 636.865 6.28248C576.712 -4.91143 526.13 0.413155 480.533 10.5099C477.961 11.07 475.41 11.6608 472.865 12.2592C408.948 27.2893 354.518 50.5747 296.44 48.5416C293.896 48.4572 291.338 48.3191 288.78 48.1349C263.461 46.2629 237.343 39.3655 209.369 24.696C176.307 7.36427 142.687 13.1875 112.355 33.8261C95.2347 45.4573 79.1623 61.8147 64.8274 81.3944L64.7791 81.4558C62.7565 84.2178 60.7708 87.031 58.8217 89.8953C12.1764 158.854 -13.7215 261.97 7.52224 341.877C8.2853 344.757 9.11271 347.601 10.0045 350.409C16.1411 369.889 25.2702 387.796 37.7917 403.248C45.0573 412.187 54.3759 418.752 64.7446 422.237C66.5236 422.851 68.337 423.349 70.1711 423.771C70.6882 414.066 70.0883 404.368 67.544 395.108C66.165 390.059 64.2206 385.21 63.0278 380.108C62.0612 375.537 61.3998 370.893 61.0489 366.214C59.9548 354.961 58.8608 343.708 57.7668 332.455C57.0773 325.55 56.3878 318.538 56.5739 311.548C56.7619 304.161 57.8901 296.84 59.925 289.805C58.9321 287.764 58.7597 285.324 58.6494 282.984C58.3046 275.588 58.1529 268.192 58.1047 260.788C57.029 261.855 55.9465 262.898 54.8571 263.942L49.3065 269.274C48.5716 270.098 47.6712 270.716 46.6795 271.077C44.2593 271.737 42.1149 269.343 40.5497 267.179C38.9846 265.016 37.2677 262.645 36.4127 259.921C35.7586 257.391 35.5043 254.753 35.6611 252.126C35.7163 248.758 35.868 245.398 36.0266 242.037L37.3297 213.926C37.578 208.555 37.8262 203.231 38.2606 197.898C38.5709 194.062 39.0121 190.165 40.7842 186.889C44.1145 180.751 51.2578 178.61 57.7461 179.132C57.5844 178.777 57.495 178.387 57.4843 177.989C57.4736 177.591 57.5418 177.195 57.6841 176.83C58.0898 176.145 58.6711 175.61 59.3527 175.296L68.9437 169.534C69.6232 169.054 70.3919 168.752 71.1915 168.652C71.6152 168.636 72.0361 168.733 72.4189 168.935L74.2737 167.493C74.6877 167.13 75.154 166.847 75.6527 166.657C76.2752 166.483 76.9301 166.517 77.535 166.757C78.0023 165.719 78.2722 164.586 78.328 163.427C78.2876 161.987 78.0119 160.567 77.5143 159.238C75.3029 157.375 73.5039 154.974 72.2549 152.219C71.006 149.463 70.3404 146.426 70.309 143.341C68.2404 142.052 65.5789 141.33 64.7377 138.614C64.1654 136.765 64.8481 134.725 64.6136 132.799C64.1556 132.294 63.8067 131.68 63.5932 131.004C63.0002 129.093 63.7724 126.96 63.4552 124.965C63.276 123.868 62.7657 122.794 62.9657 121.705C63.1683 120.931 63.543 120.226 64.0551 119.656L70.833 110.726C72.3292 108.762 73.8737 106.744 75.9285 105.57C80.8516 102.754 86.7469 105.57 92.2767 105.57C94.1315 105.57 96.0484 105.248 97.7928 105.915C99.0481 106.486 100.202 107.302 101.199 108.324L108.784 115.229C111.335 117.531 114.086 120.27 114.334 123.922C114.392 125.03 114.247 126.139 113.907 127.183C114.786 128.437 115.328 129.943 115.472 131.525C115.644 134.057 114.541 136.482 113.272 138.591C111.367 141.738 109.042 144.542 106.377 146.908C105.753 150.549 104.244 153.93 102.013 156.683C102.512 159.358 103.166 161.996 103.971 164.578C103.99 164.622 104.006 164.668 104.019 164.716C104.664 164.757 105.285 164.999 105.812 165.414C106.355 165.866 106.854 166.38 107.301 166.948C107.542 166.528 107.893 166.201 108.308 166.012C109.328 165.56 110.473 166.074 111.473 166.58C114.513 168.115 117.609 169.718 120.085 172.212C120.986 173.122 121.745 174.193 122.332 175.38C125.8 174.842 129.324 175.749 132.227 177.927C137.44 181.902 139.584 189.16 141.397 195.896C142.749 200.939 144.103 205.977 145.459 211.01C147.238 217.624 149.03 224.314 149.444 231.204C149.823 237.472 149.051 243.748 148.279 249.97C147.21 258.586 149.727 268.031 149.761 276.724C149.761 278.956 149.761 281.22 149.713 283.475C152.524 281.543 155.851 280.759 159.125 281.258C159.712 280.071 160.471 279 161.372 278.089C163.848 275.596 166.944 274.008 169.984 272.458C170.984 271.952 172.129 271.438 173.149 271.89C173.564 272.079 173.915 272.406 174.156 272.826C174.603 272.258 175.102 271.744 175.645 271.292C176.172 270.877 176.794 270.635 177.438 270.594C177.451 270.546 177.467 270.5 177.486 270.455C178.291 267.873 178.945 265.236 179.445 262.561C177.214 259.808 175.704 256.427 175.08 252.786C172.415 250.42 170.09 247.615 168.185 244.469C166.916 242.359 165.813 239.935 165.985 237.403C166.129 235.82 166.671 234.315 167.55 233.061C167.21 232.017 167.065 230.908 167.123 229.8C167.371 226.148 170.122 223.417 172.674 221.107L180.258 214.202C181.255 213.18 182.409 212.364 183.664 211.793C185.416 211.125 187.332 211.448 189.18 211.448C194.696 211.448 200.606 208.647 205.529 211.448C207.597 212.622 209.128 214.639 210.624 216.604L217.492 225.542C218.004 226.112 218.378 226.816 218.581 227.59C218.774 228.68 218.271 229.754 218.092 230.851C217.774 232.846 218.547 234.979 217.954 236.889C217.74 237.566 217.391 238.18 216.933 238.684C216.699 240.61 217.381 242.651 216.809 244.5C215.968 247.216 213.32 247.937 211.238 249.226C211.206 252.312 210.541 255.349 209.292 258.104C208.043 260.86 206.244 263.261 204.032 265.123C203.535 266.453 203.259 267.873 203.219 269.312C203.275 270.471 203.544 271.605 204.012 272.642C204.617 272.403 205.272 272.368 205.894 272.542C206.393 272.733 206.859 273.015 207.273 273.379L209.128 274.821C209.511 274.618 209.932 274.521 210.355 274.537C211.155 274.638 211.924 274.94 212.603 275.419L222.173 281.12C222.593 281.358 222.986 281.648 223.346 281.987C223.421 279.923 223.504 277.852 223.601 275.788L224.904 247.676C225.152 242.306 225.4 236.981 225.835 231.649C226.145 227.813 226.586 223.915 228.358 220.639C231.689 214.501 238.832 212.361 245.32 212.882C245.159 212.527 245.069 212.137 245.058 211.739C245.048 211.341 245.116 210.946 245.258 210.581C245.664 209.895 246.245 209.361 246.927 209.046L256.49 203.292C257.17 202.812 257.938 202.51 258.738 202.41C259.162 202.394 259.583 202.491 259.965 202.694L261.82 201.251C262.234 200.888 262.701 200.605 263.199 200.415C263.822 200.241 264.477 200.276 265.082 200.515C265.549 199.477 265.819 198.344 265.875 197.185C265.834 195.745 265.558 194.326 265.061 192.996C262.849 191.133 261.05 188.732 259.801 185.977C258.553 183.222 257.887 180.185 257.856 177.099C255.787 175.81 253.125 175.089 252.284 172.373C251.712 170.524 252.395 168.483 252.16 166.557C251.702 166.052 251.353 165.438 251.14 164.762C250.547 162.851 251.319 160.718 251.002 158.724C250.772 157.858 250.597 156.977 250.478 156.084C249.726 157.661 249.147 159.333 248.754 161.064C247.782 165.414 247.954 169.971 247.375 174.398C247.168 175.933 246.775 177.574 245.61 178.388C244.707 179.009 243.541 178.963 242.569 179.416C240.942 180.183 240.039 182.17 239.811 184.119C239.584 186.068 239.859 188.032 239.859 189.996C239.859 195.129 237.646 200.438 233.619 202.939C228.317 206.231 221.732 204.052 216.002 201.811C218.556 200.786 220.824 199.035 222.58 196.732L216.271 195.336C219.94 193.447 223.333 190.956 226.338 187.947C227.461 186.958 228.343 185.671 228.903 184.203C229.593 182.055 228.951 179.6 229.593 177.444C230.661 173.761 234.722 172.357 236.791 169.25C238.604 166.534 238.666 162.89 238.66 159.506L238.625 146.632C238.625 142.926 238.839 138.661 241.493 136.413C244.451 133.896 248.644 135.331 252.367 135.3C256.29 135.3 260.027 133.489 263.93 132.998C267.612 132.523 273.756 135.4 273.652 138.645C275.702 139.055 277.776 139.296 279.858 139.366C281.713 139.366 283.629 139.044 285.374 139.712C286.629 140.283 287.783 141.098 288.78 142.121L296.365 149.026C298.916 151.327 301.667 154.067 301.881 157.719C301.939 158.826 301.793 159.936 301.453 160.979C302.332 162.234 302.875 163.739 303.018 165.322C303.191 167.854 302.088 170.278 300.819 172.388C298.914 175.534 296.589 178.339 293.924 180.705C293.3 184.346 291.79 187.727 289.559 190.479C290.059 193.155 290.713 195.792 291.517 198.374C291.536 198.419 291.553 198.465 291.566 198.512C292.21 198.554 292.831 198.795 293.358 199.21C293.902 199.663 294.401 200.177 294.848 200.745C295.088 200.324 295.44 199.997 295.854 199.809C296.875 199.356 298.019 199.87 299.019 200.377C301.7 201.611 304.245 203.184 306.604 205.064C306.604 204.903 306.604 204.75 306.604 204.596C306.659 201.228 306.811 197.868 306.969 194.507L308.272 166.396C308.521 161.025 308.769 155.701 309.203 150.368C309.514 146.532 309.955 142.635 311.727 139.359C315.057 133.221 322.201 131.08 328.689 131.602C328.527 131.247 328.438 130.857 328.427 130.459C328.416 130.061 328.484 129.665 328.627 129.3C329.033 128.615 329.614 128.08 330.295 127.766L339.921 121.966C340.6 121.486 341.369 121.184 342.169 121.083C342.592 121.067 343.013 121.165 343.396 121.367L345.251 119.925C345.665 119.562 346.131 119.279 346.63 119.088C347.252 118.914 347.907 118.949 348.512 119.188C348.979 118.151 349.249 117.017 349.305 115.858C349.265 114.419 348.989 112.999 348.492 111.669C346.28 109.807 344.481 107.406 343.232 104.651C341.983 101.895 341.318 98.8582 341.286 95.7723C339.218 94.4833 336.556 93.7622 335.715 91.0462C335.143 89.1971 335.825 87.1563 335.591 85.2305C335.133 84.7259 334.784 84.112 334.57 83.4352C333.977 81.5248 334.75 79.3919 334.432 77.3971C334.253 76.3 333.743 75.2259 333.943 74.1364C334.146 73.3625 334.52 72.658 335.032 72.0879L341.81 63.1573C343.306 61.1932 344.851 59.1754 346.906 58.0015C351.829 55.1858 357.724 58.0015 363.254 58.0015C365.109 58.0015 367.026 57.6793 368.77 58.3468C370.025 58.9176 371.179 59.7335 372.176 60.7559L379.761 67.661C382.312 69.9627 385.063 72.7017 385.277 76.3537C385.335 77.4616 385.19 78.5711 384.849 79.6144C385.728 80.8689 386.271 82.3742 386.415 83.9569C386.587 86.4888 385.484 88.9133 384.215 91.0232C382.31 94.1692 379.985 96.9737 377.32 99.3399C376.696 102.981 375.186 106.362 372.955 109.114C373.455 111.79 374.109 114.427 374.914 117.009C374.933 117.054 374.949 117.1 374.962 117.147C375.606 117.189 376.228 117.431 376.755 117.846C377.298 118.298 377.797 118.812 378.244 119.38C378.484 118.96 378.836 118.633 379.251 118.444C380.271 117.991 381.416 118.505 382.415 119.012C385.456 120.546 388.552 122.15 391.027 124.643C391.929 125.554 392.688 126.625 393.275 127.812C396.743 127.274 400.267 128.181 403.17 130.359C408.382 134.333 410.527 141.591 412.34 148.328C413.692 153.371 415.045 158.409 416.401 163.442C418.18 170.056 419.973 176.746 420.387 183.636C420.738 189.497 420.083 195.359 419.366 201.182C419.539 200.983 419.711 200.791 419.904 200.599C422.379 198.106 425.475 196.517 428.516 194.968C429.516 194.461 430.66 193.947 431.681 194.4C432.095 194.589 432.447 194.916 432.688 195.336C433.134 194.768 433.634 194.254 434.177 193.801C434.704 193.387 435.325 193.145 435.97 193.103C435.983 193.056 435.999 193.01 436.018 192.965C436.822 190.383 437.476 187.746 437.976 185.07C435.745 182.318 434.236 178.937 433.612 175.296C430.947 172.93 428.622 170.125 426.716 166.979C425.448 164.869 424.345 162.445 424.517 159.913C424.66 158.33 425.203 156.825 426.082 155.57C425.742 154.527 425.596 153.417 425.655 152.31C425.903 148.658 428.654 145.926 431.171 143.617L438.755 136.712C439.753 135.689 440.906 134.874 442.161 134.303C443.913 133.635 445.83 133.957 447.677 133.957C449.759 133.887 451.833 133.646 453.883 133.236C453.78 129.991 459.923 127.098 463.605 127.589C467.501 128.088 471.245 129.891 475.168 129.891C478.892 129.891 483.084 128.487 486.042 131.004C488.696 133.252 488.917 137.517 488.91 141.223L488.876 154.097C488.876 157.481 488.931 161.125 490.744 163.841C492.716 166.803 496.488 168.214 497.763 171.513C499.322 167.056 501.432 162.92 504.921 160.258C507.823 158.08 511.347 157.173 514.815 157.711C515.402 156.524 516.161 155.453 517.063 154.542C519.538 152.049 522.634 150.461 525.675 148.911C526.675 148.404 527.819 147.89 528.84 148.343C529.254 148.532 529.606 148.859 529.846 149.279C530.293 148.711 530.792 148.197 531.336 147.745C531.863 147.33 532.484 147.088 533.128 147.046C533.141 146.999 533.158 146.953 533.177 146.908C533.981 144.326 534.635 141.689 535.135 139.013C532.904 136.261 531.394 132.88 530.77 129.239C528.105 126.873 525.78 124.068 523.875 120.922C522.606 118.812 521.503 116.388 521.676 113.856C521.819 112.273 522.362 110.768 523.241 109.513C522.901 108.47 522.755 107.361 522.813 106.253C523.062 102.601 525.813 99.8693 528.329 97.56L535.914 90.6549C536.911 89.6325 538.065 88.8166 539.32 88.2458C541.072 87.5783 542.988 87.9005 544.836 87.9005C546.918 87.8303 548.992 87.5893 551.042 87.1793C550.938 83.9339 557.082 81.0415 560.764 81.5325C564.66 82.0312 568.404 83.8342 572.327 83.8342C576.05 83.8342 580.243 82.4302 583.201 84.9467C585.855 87.1947 586.076 91.4605 586.069 95.1662L586.034 108.04C586.034 111.424 586.09 115.068 587.903 117.784C589.972 120.891 594.033 122.295 595.101 125.978C595.722 128.149 595.101 130.582 595.791 132.738C596.393 134.25 597.339 135.561 598.535 136.543C600.077 138.095 601.725 139.511 603.465 140.778C603.748 139.76 604.189 138.804 604.768 137.955C604.428 136.911 604.283 135.802 604.341 134.694C604.589 131.042 607.34 128.311 609.857 126.001L617.442 119.096C618.439 118.074 619.592 117.258 620.848 116.687C622.599 116.02 624.516 116.342 626.364 116.342C631.88 116.342 637.789 113.541 642.712 116.342C644.781 117.516 646.311 119.533 647.808 121.498L654.585 130.428C655.098 130.998 655.472 131.703 655.675 132.477C655.868 133.566 655.365 134.64 655.185 135.737C654.868 137.732 655.64 139.865 655.047 141.775C654.834 142.452 654.485 143.066 654.027 143.571C653.793 145.497 654.475 147.537 653.903 149.386C653.062 152.102 650.414 152.824 648.332 154.113C648.3 157.198 647.634 160.235 646.386 162.991C645.137 165.746 643.338 168.147 641.126 170.01C640.629 171.339 640.353 172.759 640.313 174.199C640.368 175.357 640.638 176.491 641.106 177.528C641.71 177.289 642.365 177.255 642.988 177.429C643.487 177.619 643.953 177.902 644.367 178.265L646.222 179.707C646.605 179.505 647.025 179.407 647.449 179.424C648.249 179.524 649.017 179.826 649.697 180.306L659.267 186.006C659.949 186.321 660.53 186.855 660.936 187.541C661.078 187.906 661.146 188.302 661.136 188.699C661.125 189.097 661.035 189.487 660.874 189.842C667.362 189.321 674.505 191.461 677.836 197.599C679.608 200.875 680.049 204.803 680.359 208.609C680.794 213.941 681.049 219.289 681.29 224.636L682.593 252.748C682.752 256.108 682.904 259.469 682.959 262.837C683.116 265.464 682.861 268.102 682.207 270.632C681.373 273.356 679.718 275.65 678.07 277.89C676.422 280.13 674.361 282.447 671.94 281.787C670.949 281.427 670.048 280.809 669.313 279.984L663.763 274.683C662.673 273.639 661.591 272.596 660.515 271.53C660.467 278.933 660.315 286.329 659.97 293.726C659.86 296.066 659.688 298.505 658.695 300.546C660.73 307.581 661.858 314.902 662.046 322.29C662.098 328.315 661.794 334.338 661.136 340.32C661.715 338.946 662.294 337.573 662.88 336.169C692.853 264.931 727.405 162.261 715.642 89.8876Z" fill="white"/>
<path d="M58.9875 225.443L57.2293 233.039C57.574 232.555 57.9188 232.08 58.2705 231.604C58.2403 229.701 58.5741 227.813 59.2496 226.065C59.9873 224.407 61.2147 223.103 62.2351 221.653C62.087 221.789 61.9328 221.918 61.7732 222.037C61.0181 222.393 60.3196 222.883 59.7046 223.487C59.3376 224.071 59.0927 224.74 58.9875 225.443Z" fill="#F2F2F2"/>
<path d="M481.836 259.992C482.181 260.467 482.526 260.943 482.877 261.426L481.119 253.831C481.006 253.125 480.751 252.456 480.374 251.874C479.759 251.27 479.061 250.781 478.306 250.424C478.146 250.305 477.992 250.177 477.844 250.041C478.864 251.491 480.092 252.795 480.829 254.452C481.514 256.198 481.858 258.087 481.836 259.992Z" fill="#F2F2F2"/>
<path d="M590.103 306.363C590.31 306.156 590.523 305.964 590.744 305.772C590.13 304.836 589.537 303.877 588.993 302.88C588.977 302.842 588.959 302.807 588.938 302.772C589.206 303.724 589.496 304.667 589.82 305.604C589.91 305.857 589.986 306.102 590.103 306.363Z" fill="#F2F2F2"/>
<path d="M410.355 320.419C410.624 321.37 410.913 322.314 411.237 323.25C411.327 323.503 411.423 323.756 411.52 324.017C411.727 323.81 411.941 323.618 412.161 323.426C411.548 322.49 410.955 321.531 410.41 320.534C410.394 320.494 410.376 320.455 410.355 320.419Z" fill="#F2F2F2"/>
<path d="M469.804 171.745C469.773 174.831 469.107 177.868 467.858 180.623C466.609 183.378 464.81 185.779 462.599 187.642C462.101 188.972 461.826 190.391 461.785 191.831C461.841 192.99 462.111 194.123 462.578 195.161C463.183 194.922 463.838 194.887 464.46 195.061C464.959 195.251 465.425 195.534 465.839 195.897L467.694 197.34C468.077 197.137 468.498 197.04 468.922 197.056C469.721 197.156 470.49 197.458 471.169 197.938L480.74 203.639C481.421 203.953 482.003 204.487 482.408 205.173C482.551 205.538 482.619 205.934 482.608 206.332C482.597 206.729 482.508 207.12 482.346 207.475C484.399 207.305 486.462 207.415 488.49 207.805C489.225 203.52 490.18 199.285 491.351 195.122C489.061 192.21 487.81 188.465 487.835 184.596C487.835 182.632 488.118 180.66 487.883 178.719C487.649 176.778 486.745 174.76 485.125 174.016C484.139 173.563 482.988 173.609 482.084 172.988C480.919 172.174 480.526 170.517 480.319 168.998C479.719 164.571 479.892 160.014 478.94 155.664C478.547 153.933 477.968 152.261 477.216 150.684C477.097 151.576 476.922 152.458 476.692 153.323C476.375 155.318 477.147 157.451 476.554 159.362C476.341 160.038 475.992 160.652 475.534 161.157C475.3 163.083 475.982 165.124 475.41 166.973C474.534 169.735 471.886 170.456 469.804 171.745Z" fill="#F2F2F2"/>
<path d="M507.445 234.926C505.817 247.309 504.245 260.245 507.024 272.244C507.224 271.516 507.587 270.856 508.079 270.326C509.913 267.817 510.637 264.541 511.182 261.365C514.533 241.747 512.919 221.653 512.161 201.613L510.692 203.5C510.145 204.121 509.68 204.827 509.313 205.595C508.965 206.506 508.776 207.482 508.755 208.472C508.619 210.824 508.69 213.186 508.968 215.523C509.648 220.66 509.376 225.898 508.169 230.914C507.842 232.23 507.6 233.571 507.445 234.926Z" fill="#F2F2F2"/>
<path d="M496.95 298.43C496.467 298.879 495.9 299.202 495.291 299.376C494.681 299.55 494.044 299.57 493.427 299.435C492.435 299.074 491.535 298.456 490.8 297.632L485.284 292.33C484.194 291.287 483.112 290.243 482.036 289.177C481.988 296.581 481.836 303.977 481.491 311.373C481.381 313.713 481.209 316.153 480.216 318.194C482.251 325.229 483.379 332.549 483.567 339.937C483.732 346.926 483.057 353.901 482.374 360.844C481.285 372.097 480.19 383.35 479.092 394.602C478.741 399.282 478.08 403.926 477.113 408.497C476.161 412.571 474.734 416.484 473.493 420.458L480.533 420.374L489.497 420.266H490.6L505.769 420.082C505.772 420.067 505.772 420.051 505.769 420.036C506.941 412.648 510.099 405.459 509.472 398.032C509.058 393.037 506.976 388.441 505.541 383.692C499.281 362.931 505.541 339.791 501.011 318.478C499.97 313.583 498.398 308.296 500.322 303.731L497.447 302.749C497.84 301.744 498.24 300.732 498.639 299.726C498.023 299.388 497.454 298.951 496.95 298.43Z" fill="#F2F2F2"/>
<path d="M441.624 405.29C441.652 410.476 441.681 415.663 441.714 420.849H442.017L441.624 405.29Z" fill="#F2F2F2"/>
<path d="M620.207 387.644C620.253 395.469 620.299 403.295 620.345 411.121L620.8 410.829C620.598 403.106 620.4 395.377 620.207 387.644Z" fill="#F2F2F2"/>
<path d="M603.493 145.083L602.328 145.344C602.98 146.189 603.705 146.96 604.493 147.646C604.077 146.835 603.742 145.976 603.493 145.083Z" fill="#F2F2F2"/>
<path d="M538.845 359.256L539.052 393.06C539.15 395.794 538.995 398.532 538.59 401.231C538.176 403.479 537.417 405.635 536.983 407.883C536.369 411.105 536.445 414.428 536.473 417.719C536.473 418.387 536.473 419.046 536.473 419.706L540.382 419.66C539.872 399.528 539.36 379.393 538.845 359.256Z" fill="#F2F2F2"/>
<path d="M660.419 242.345C660.764 242.821 661.109 243.297 661.46 243.78L659.702 236.184C659.589 235.478 659.334 234.81 658.957 234.228C658.342 233.624 657.644 233.134 656.889 232.778C656.729 232.659 656.575 232.531 656.427 232.394C657.447 233.844 658.675 235.149 659.412 236.806C660.097 238.552 660.441 240.44 660.419 242.345Z" fill="#F2F2F2"/>
<path d="M567.025 125.711C566.994 128.797 566.328 131.834 565.079 134.589C563.83 137.344 562.031 139.745 559.82 141.608C559.322 142.938 559.046 144.357 559.006 145.797C559.062 146.956 559.332 148.089 559.799 149.127C560.404 148.888 561.059 148.853 561.681 149.027C562.18 149.217 562.646 149.5 563.06 149.863L564.915 151.306C565.298 151.103 565.719 151.006 566.142 151.022C566.942 151.122 567.711 151.424 568.39 151.904L577.961 157.605C578.642 157.919 579.223 158.453 579.629 159.139C579.772 159.504 579.84 159.9 579.829 160.298C579.818 160.695 579.729 161.086 579.567 161.441C586.055 160.919 593.199 163.06 596.529 169.197C598.301 172.474 598.742 176.402 599.053 180.207C599.108 180.913 599.156 181.611 599.204 182.309C601.569 180.161 604.396 178.696 607.182 177.276C608.182 176.77 609.326 176.256 610.347 176.709C610.761 176.897 611.113 177.224 611.354 177.645C611.8 177.077 612.3 176.562 612.843 176.11C613.37 175.695 613.991 175.453 614.636 175.412C614.649 175.365 614.665 175.319 614.684 175.274C615.488 172.692 616.142 170.055 616.642 167.379C614.411 164.626 612.902 161.246 612.278 157.605C610.185 155.736 608.301 153.595 606.665 151.229C601.514 153.086 595.915 154.375 591.296 151.505C587.269 149.004 585.09 143.695 585.09 138.562C585.09 136.598 585.373 134.626 585.138 132.685C584.904 130.744 584.001 128.726 582.38 127.982C581.394 127.529 580.243 127.575 579.34 126.954C578.174 126.14 577.781 124.483 577.575 122.964C576.975 118.537 577.147 113.98 576.196 109.63C575.803 107.899 575.224 106.227 574.472 104.65C574.352 105.543 574.177 106.424 573.948 107.29C573.631 109.284 574.403 111.417 573.81 113.328C573.596 114.004 573.247 114.618 572.789 115.123C572.555 117.049 573.238 119.09 572.665 120.939C571.755 123.701 569.107 124.422 567.025 125.711Z" fill="#F2F2F2"/>
<path d="M174.708 265.462H554.904C558.356 265.462 561.667 266.988 564.109 269.705C566.55 272.421 567.921 276.105 567.921 279.947V330.838H161.69V279.963C161.688 278.059 162.024 276.174 162.677 274.415C163.33 272.655 164.289 271.057 165.498 269.71C166.707 268.363 168.143 267.295 169.723 266.566C171.303 265.837 172.997 265.462 174.708 265.462Z" fill="#3F3D56"/>
<path opacity="0.1" d="M174.708 265.462H554.904C558.356 265.462 561.667 266.988 564.109 269.705C566.55 272.421 567.921 276.105 567.921 279.947V330.838H161.69V279.963C161.688 278.059 162.024 276.174 162.677 274.415C163.33 272.655 164.289 271.057 165.498 269.71C166.707 268.363 168.143 267.295 169.723 266.566C171.303 265.837 172.997 265.462 174.708 265.462Z" fill="#111111"/>
<path d="M485.249 324.784V419.675L468.873 419.875L467.715 419.89L453.146 420.067H452.697L442.486 420.189L423.91 420.42L362.903 421.156L354.346 421.256L337.543 421.463L336.77 421.471L322.428 421.647L282.74 422.123L273.411 422.238L244.362 422.591V324.784H485.249Z" fill="#3F3D56"/>
<path opacity="0.1" d="M485.249 324.784V419.675L468.873 419.875L467.715 419.89L453.146 420.067H452.697L442.486 420.189L423.91 420.42L362.903 421.156L354.346 421.256L337.543 421.463L336.77 421.471L322.428 421.647L282.74 422.123L273.411 422.238L244.362 422.591V324.784H485.249Z" fill="#111111"/>
<path d="M161.69 324.316H567.921V335.479C567.921 339.453 566.503 343.265 563.977 346.075C561.452 348.885 558.027 350.463 554.455 350.463H175.984C172.193 350.463 168.557 348.788 165.876 345.805C163.196 342.822 161.69 338.777 161.69 334.559V324.316Z" fill="#3F3D56"/>
<path d="M284.65 337.39C300.644 337.39 313.61 334.254 313.61 330.385C313.61 326.516 300.644 323.38 284.65 323.38C268.656 323.38 255.691 326.516 255.691 330.385C255.691 334.254 268.656 337.39 284.65 337.39Z" fill="#6438CF"/>
<path d="M282.278 331.168L281.706 297.816C281.582 290.359 281.823 281.904 286.808 276.909C289.959 273.756 294.69 272.398 296.668 268.232C297.744 265.93 297.765 263.268 297.758 260.705C297.758 245.565 297.733 230.43 297.682 215.3" stroke="#6438CF" stroke-width="6" stroke-miterlimit="10"/>
<path d="M298.02 201.038H295.62C292.574 201.038 290.104 203.786 290.104 207.175V223.855C290.104 227.245 292.574 229.993 295.62 229.993H298.02C301.066 229.993 303.536 227.245 303.536 223.855V207.175C303.536 203.786 301.066 201.038 298.02 201.038Z" fill="#6438CF"/>
<path d="M403.618 278.221C399.205 272.49 394.496 267.058 389.787 261.626L380.237 250.601L371.563 240.588L329.827 192.422C324.752 186.56 319.429 180.514 312.589 177.645C305.749 174.775 296.896 176.057 292.752 182.77C292.055 183.817 291.554 185.009 291.28 186.276C291.007 187.543 290.966 188.858 291.159 190.143C291.642 192.636 293.228 194.67 294.945 196.396C303.081 204.667 314.058 208.326 323.773 214.119C327.038 215.927 330.023 218.304 332.612 221.162C334.731 223.838 336.581 226.763 338.129 229.885L362.53 275.19C364.042 278.154 365.766 280.977 367.688 283.63C369.246 285.671 371.032 287.466 372.68 289.438C376.576 294.041 379.637 299.496 383.381 304.284C388.587 310.959 395.02 316.283 401.398 321.554C402.715 322.644 404.156 323.772 405.776 323.856C407.921 323.979 409.775 322.321 411.382 320.733C413.995 318.163 419.305 314.473 420.739 310.897C422 307.729 419.773 304.529 418.429 301.737C414.263 293.331 409.297 285.447 403.618 278.221Z" fill="#FBBEBE"/>
<path d="M423.91 420.42L362.903 421.187L354.346 421.287L337.543 421.494H336.77L322.428 421.67C323.688 417.044 325.312 412.551 327.283 408.244C328.547 405.548 330.021 402.98 331.689 400.571C334.764 400.878 337.832 401.154 340.907 401.431C348.032 402.049 355.157 402.615 362.282 403.126C380.32 404.446 398.323 405.581 416.422 407.377C417.643 407.499 418.946 407.661 419.87 408.543C420.419 409.149 420.848 409.875 421.132 410.676C422.399 413.791 423.332 417.061 423.91 420.42Z" fill="#3F3D56"/>
<path d="M381.533 234.704C397.254 229.134 404.783 225.996 418.767 216.198C415.712 216.766 420.146 212.653 417.091 212.185C414.037 211.717 410.961 210.037 409.403 207.06C408.39 205.127 408.093 202.848 407.824 200.631L406.335 188.486C406.514 189.928 377.865 190.112 377.658 199.097C377.548 203.792 380.547 209.155 381.326 213.804C382.477 220.705 382.547 227.776 381.533 234.704Z" fill="#FBBEBE"/>
<path opacity="0.1" d="M381.533 234.704C397.254 229.134 404.783 225.996 418.767 216.198C415.712 216.766 420.146 212.653 417.091 212.185C414.037 211.717 410.961 210.037 409.403 207.06C408.39 205.127 408.093 202.848 407.824 200.631L406.335 188.486C406.514 189.928 377.865 190.112 377.658 199.097C377.548 203.792 380.547 209.155 381.326 213.804C382.477 220.705 382.547 227.776 381.533 234.704Z" fill="black"/>
<path d="M445.927 344.402C445.927 346.428 445.927 348.446 445.837 350.463C445.492 359.133 444.251 367.772 443.486 376.419C442.189 390.996 442.245 405.574 442.486 420.189L423.91 420.412L362.903 421.179L354.346 421.279L337.543 421.486C337.384 421.072 337.212 420.665 337.025 420.274C337.028 420.256 337.028 420.238 337.025 420.22C334.805 415.425 330.772 412.087 327.31 408.267C325.64 406.525 324.194 404.534 323.015 402.351C330.599 387.82 337.57 372.69 342.562 356.816C343.252 354.706 343.845 352.573 344.631 350.486C345.128 349.056 345.716 347.666 346.389 346.328C347.609 343.98 349.147 341.817 350.043 339.277C350.712 337.025 351.07 334.674 351.105 332.303C351.133 331.827 351.153 331.352 351.167 330.876C351.25 328.83 351.284 326.807 351.271 324.807C351.271 324.646 351.271 324.493 351.271 324.339C351.271 321.91 351.193 319.485 351.036 317.066C350.698 311.626 350.05 306.164 350.65 300.755C351.781 290.566 357.187 281.75 361.048 272.367C361.42 271.477 361.779 270.595 362.11 269.697C362.627 268.316 363.103 266.904 363.558 265.485C366.157 257.306 368.081 248.667 372.839 242.015C373.238 241.448 373.68 240.887 374.128 240.343C376.127 237.964 378.568 235.885 379.747 232.908C380.926 229.931 381.271 226.149 378.43 225.389C379.759 224.336 381.023 223.349 382.223 222.428C391.51 215.323 397.461 212.017 409.803 208.994C410.072 208.925 410.341 208.871 410.61 208.817C411.393 208.625 412.205 208.625 412.989 208.817C413.805 209.104 414.568 209.557 415.236 210.152C422.704 215.983 429.716 220.479 432.819 230.023C433.901 233.346 437.335 238.686 437.852 242.169C439.08 250.401 442.272 257.828 444.437 265.516C445.829 270.067 446.548 274.84 446.568 279.648C446.402 293.113 444.051 306.501 444.396 319.951C444.437 321.408 444.506 322.866 444.596 324.316C444.596 324.47 444.596 324.631 444.596 324.784C444.72 326.81 444.892 328.835 445.058 330.853C445.451 335.364 445.878 339.86 445.927 344.402Z" fill="#565171"/>
<path d="M389.456 310.79C389.456 310.882 389.456 310.989 389.456 311.082C389.297 313.913 389.145 316.751 388.918 319.59C388.918 320.081 388.842 320.58 388.801 321.086C388.704 322.16 388.608 323.242 388.49 324.316C388.49 324.47 388.49 324.623 388.442 324.784C388.221 326.817 387.952 328.843 387.608 330.853C387.263 332.863 386.835 334.981 386.318 336.991C385.139 341.541 383.505 345.937 382.181 350.44C381.74 351.975 381.326 353.509 380.982 355.044C380.402 357.652 380.016 360.299 379.334 362.87C378.377 366.116 377.183 369.27 375.762 372.299L362.303 403.073C359.862 408.648 357.421 414.22 354.98 419.791C354.78 420.259 354.573 420.727 354.367 421.202L337.563 421.409H336.791C336.881 420.995 336.963 420.596 337.046 420.189C338.347 413.914 339.646 407.64 340.942 401.369C342.238 395.098 343.511 388.917 344.762 382.825C345.681 378.304 346.616 373.785 347.568 369.268C348.588 364.297 349.616 359.32 350.65 354.338C350.919 353.041 351.188 351.752 351.45 350.456C352.719 344.402 354.029 338.357 355.587 332.395C355.718 331.881 355.863 331.359 355.994 330.861C356.559 328.82 357.145 326.794 357.78 324.792C357.821 324.631 357.869 324.47 357.917 324.324C359.445 319.391 361.245 314.569 363.309 309.885C363.351 309.77 363.399 309.678 363.447 309.562C363.496 309.447 363.447 309.562 363.447 309.562C364.02 308.273 364.626 307 365.247 305.726C366.626 302.957 367.798 299.128 370.88 298.576C373.638 298.085 377.699 299.803 380.961 301.061C381.85 301.407 382.664 301.706 383.388 301.928C385.456 302.565 387.718 303.386 388.794 305.45C389.642 307.015 389.559 308.972 389.456 310.79Z" fill="#FBBEBE"/>
<path opacity="0.1" d="M373.611 247.094C370.163 251 368.17 256.24 366.667 261.472C362.32 276.62 361.159 292.677 363.275 308.404C363.509 310.099 363.875 311.971 365.15 312.946C366.585 314.043 368.66 313.46 369.977 312.14C371.294 310.821 371.928 308.941 372.57 307.138C373.693 310.107 374.879 313.168 376.982 315.386C381.347 319.989 388.346 319.744 393.386 323.403C400.349 307.529 406.477 291.219 411.741 274.554C412.659 272.021 413.228 269.349 413.43 266.628C413.448 264.177 413.029 261.747 412.196 259.478C409.438 251.491 403.011 245.353 395.647 242.982C388.58 240.703 379.044 240.987 373.611 247.094Z" fill="black"/>
<path d="M372.79 245.222C369.343 249.128 367.35 254.375 365.84 259.6C361.489 274.755 360.331 290.822 362.454 306.555C362.682 308.25 363.054 310.122 364.323 311.089C365.757 312.194 367.833 311.603 369.115 310.322C370.398 309.041 371.073 307.13 371.708 305.32C372.838 308.289 374.018 311.35 376.121 313.575C380.485 318.178 387.484 317.933 392.531 321.585C399.491 305.71 405.617 289.4 410.879 272.735C411.803 270.208 412.373 267.537 412.568 264.817C412.589 262.364 412.17 259.93 411.334 257.659C408.576 249.672 402.15 243.542 394.786 241.164C387.739 238.839 378.203 239.115 372.79 245.222Z" fill="#565171"/>
<path d="M386.629 208.503C402.851 208.503 416.002 193.87 416.002 175.819C416.002 157.768 402.851 143.135 386.629 143.135C370.406 143.135 357.256 157.768 357.256 175.819C357.256 193.87 370.406 208.503 386.629 208.503Z" fill="#FBBEBE"/>
<path d="M357.297 161.096C359.17 158.725 361.719 157.142 364.516 156.615C364.268 159.937 366.798 162.753 369.522 164.164C372.245 165.576 375.307 166.013 377.989 167.487C382.774 170.11 386.408 175.888 391.738 176.103C393.586 176.172 395.875 175.719 396.923 177.391C397.317 178.139 397.526 178.988 397.53 179.854L398.04 186.054C399.516 187.013 401.315 185.892 402.977 185.463C404.198 185.148 405.474 185.222 406.659 185.674C407.845 186.127 408.892 186.941 409.682 188.023C410.473 189.106 410.974 190.413 411.13 191.797C411.285 193.181 411.088 194.586 410.562 195.851C412.72 196.194 414.921 195.954 416.979 195.15C419.036 194.346 420.89 193.003 422.382 191.233C423.874 189.464 424.961 187.32 425.551 184.984C426.141 182.649 426.217 180.189 425.772 177.813C425.429 176.57 425.251 175.278 425.241 173.977C425.455 171.016 427.999 169.059 429.461 166.574C431.481 163.121 431.33 158.533 429.978 154.697C428.627 150.861 426.241 147.615 423.89 144.439L415.54 133.145C411.685 127.943 407.1 122.312 401.06 121.967C396.778 121.729 392.751 124.268 388.483 124.713C382.278 125.366 375.762 121.644 369.998 124.245C365.861 126.11 363.406 130.69 361.213 134.987C359.379 138.57 357.524 142.222 356.759 146.25C355.511 152.802 357.276 159.638 356.601 166.29L357.297 161.096Z" fill="#3F3D56"/>
<path d="M18.534 372.084C19.9131 371.079 21.2921 370.135 22.609 369.215C23.2296 368.785 23.8433 368.34 24.45 367.872C27.3979 365.656 30.152 363.136 32.6759 360.345C32.8552 360.161 33.0344 359.954 33.2137 359.755L33.3378 359.617C34.6876 358.208 35.8033 356.546 36.6337 354.706C37.7231 352.006 37.6955 348.937 37.6266 345.983C37.4749 339.717 37.245 333.451 36.937 327.186C36.8198 324.769 36.6819 322.352 36.5371 319.935C36.4682 318.769 36.3923 317.634 36.3165 316.452" stroke="#3F3D56" stroke-width="4" stroke-miterlimit="10"/>
<path d="M46.3143 315.877C46.241 314.073 45.7604 312.319 44.9168 310.777C44.0732 309.235 42.8938 307.954 41.4878 307.054L39.3227 311.826L39.3917 306.048C37.4303 305.4 35.3346 305.462 33.4069 306.225C31.4793 306.988 29.8194 308.413 28.6668 310.295C27.5143 312.176 26.9288 314.416 26.9947 316.691C27.0606 318.967 27.7746 321.16 29.0337 322.955C30.2927 324.749 32.0316 326.052 33.9995 326.676C35.9673 327.299 38.0623 327.211 39.982 326.423C41.9018 325.636 43.547 324.19 44.6802 322.294C45.8134 320.398 46.376 318.151 46.2868 315.877H46.3143Z" fill="#6438CF"/>
<path d="M29.5248 380.086L24.9878 384.191C22.8733 380.611 20.9059 376.941 19.0856 373.181C19.387 373.128 19.6909 373.095 19.9958 373.081C22.0472 372.969 24.0774 373.588 25.7911 374.848C27.5049 376.107 28.8128 377.943 29.5248 380.086Z" fill="#6438CF"/>
<path d="M30.104 383.846C30.1016 385.554 29.7328 387.238 29.0284 388.756C28.8569 389.133 28.6634 389.497 28.4492 389.845L27.8286 388.879C27.0219 387.613 26.229 386.339 25.4567 385.043L30.104 383.846Z" fill="#6438CF"/>
<path d="M24.2776 367.857C21.8952 368.006 19.5476 367.168 17.6878 365.504C15.8279 363.841 14.5877 361.47 14.2064 358.849C13.8251 356.228 14.3298 353.542 15.623 351.311C16.9162 349.08 18.9063 347.46 21.2093 346.765L21.1541 351.2L23.3468 346.374C24.617 346.305 25.887 346.516 27.0837 346.995C28.2805 347.473 29.3804 348.211 30.3204 349.164C31.2603 350.117 32.0217 351.267 32.5608 352.549C33.1 353.831 33.4062 355.218 33.4619 356.632C33.5185 357.875 33.3785 359.118 33.0482 360.307C32.4564 362.413 31.2981 364.266 29.7296 365.616C28.1612 366.966 26.2582 367.748 24.2776 367.857Z" fill="#6438CF"/>
<path d="M47.7692 350.456C46.2828 350.519 44.8034 350.198 43.4466 349.52C42.0897 348.842 40.8922 347.824 39.9473 346.545C39.0024 345.267 38.3359 343.763 37.9996 342.15C37.6633 340.538 37.6665 338.861 38.0088 337.25C38.3511 335.64 39.0234 334.139 39.973 332.865C40.9227 331.591 42.1241 330.578 43.4835 329.906C44.8429 329.234 46.3234 328.921 47.8096 328.991C49.2958 329.06 50.7473 329.511 52.051 330.308L50.3411 335.518L53.8576 331.766C55.742 333.687 56.8653 336.36 56.981 339.201C57.0269 340.195 56.9457 341.193 56.7397 342.162C56.262 344.444 55.1269 346.489 53.5074 347.987C51.8878 349.484 49.8727 350.351 47.7692 350.456Z" fill="#6438CF"/>
<path opacity="0.1" d="M45.0112 318.746C42.7772 319.022 40.6052 319.797 38.3643 319.951C36.1234 320.104 33.6619 319.506 32.2415 317.565C31.483 316.521 31.0969 315.202 30.4557 314.066C29.8432 313.004 29.0048 312.127 28.0148 311.511C27.4296 312.87 27.1077 314.35 27.07 315.856C27.0324 317.362 27.2799 318.86 27.7964 320.252C28.3129 321.645 29.0869 322.901 30.0681 323.939C31.0493 324.977 32.2157 325.774 33.4916 326.277C34.7676 326.781 36.1245 326.98 37.4742 326.863C38.8239 326.745 40.1363 326.313 41.3261 325.594C42.5158 324.875 43.5564 323.885 44.3801 322.69C45.2039 321.494 45.7924 320.119 46.1075 318.654C45.7421 318.677 45.3766 318.7 45.0112 318.746Z" fill="black"/>
<path opacity="0.1" d="M47.7692 350.456C46.1003 350.55 44.4379 350.161 42.9448 349.325C41.4517 348.49 40.179 347.238 39.2513 345.692C38.3235 344.145 37.7724 342.357 37.652 340.502C37.5316 338.648 37.8459 336.79 38.5643 335.111C39.3339 335.686 39.9945 336.424 40.5087 337.282C41.1982 338.441 41.6188 339.776 42.4255 340.842C43.9355 342.814 46.5074 343.459 48.8449 343.336C51.1823 343.213 53.437 342.484 55.7399 342.246C56.064 342.246 56.3881 342.185 56.7191 342.177C56.2398 344.453 55.1066 346.492 53.4914 347.986C51.8763 349.48 49.8673 350.347 47.7692 350.456Z" fill="black"/>
<path opacity="0.1" d="M24.2776 367.857C22.6242 367.95 20.977 367.568 19.4944 366.748C18.0117 365.929 16.7435 364.699 15.8114 363.176C14.8794 361.654 14.3149 359.89 14.1723 358.055C14.0296 356.219 14.3136 354.374 14.9968 352.696C15.8013 353.277 16.5025 354.018 17.0653 354.883C17.8169 356.064 18.2858 357.422 19.1339 358.512C20.768 360.537 23.5123 361.251 25.9807 361.182C28.4491 361.113 30.6901 360.468 33.0689 360.269C32.4817 362.385 31.3228 364.249 29.7498 365.607C28.1768 366.965 26.2661 367.75 24.2776 367.857Z" fill="black"/>
<path d="M29.056 388.756C28.8845 389.133 28.691 389.497 28.4768 389.845L27.8562 388.879L29.056 388.756Z" fill="#6438CF"/>
</svg>
